<?xml version="1.0" encoding="UTF-8"?>
<svg version="1.1" xmlns="http://www.w3.org/2000/svg" width="50" height="50">
<path d="M0 0 C0.99 0 1.98 0 3 0 C3.36861244 5.5291866 3.36861244 5.5291866 1.74609375 7.6015625 C-0.17499314 9.14015111 -1.79114875 9.80895024 -4.125 10.5625 C-6.21478269 11.20420651 -6.21478269 11.20420651 -8 12 C-8.33 12.66 -8.66 13.32 -9 14 C-8.3387915 13.99476318 -7.67758301 13.98952637 -6.99633789 13.98413086 C-4.01840149 13.96342344 -1.04048018 13.95035988 1.9375 13.9375 C3.49887695 13.92493164 3.49887695 13.92493164 5.09179688 13.91210938 C6.08115234 13.90888672 7.07050781 13.90566406 8.08984375 13.90234375 C9.00628662 13.89710693 9.92272949 13.89187012 10.86694336 13.88647461 C13 14 13 14 14 15 C14.09971786 16.91458282 14.13080589 18.83282317 14.1328125 20.75 C14.13474609 22.49796875 14.13474609 22.49796875 14.13671875 24.28125 C14.13285156 25.5084375 14.12898438 26.735625 14.125 28 C14.13080078 29.84078125 14.13080078 29.84078125 14.13671875 31.71875 C14.13542969 32.8840625 14.13414063 34.049375 14.1328125 35.25 C14.13168457 36.32765625 14.13055664 37.4053125 14.12939453 38.515625 C14 41 14 41 13 42 C11.50129952 42.09831146 9.99801461 42.12798456 8.49609375 42.12939453 C7.05955444 42.13412277 7.05955444 42.13412277 5.59399414 42.13894653 C4.55235107 42.1369223 3.51070801 42.13489807 2.4375 42.1328125 C1.37587646 42.13376923 0.31425293 42.13472595 -0.77954102 42.13571167 C-3.02913472 42.13639364 -5.27873037 42.13453819 -7.52832031 42.13037109 C-10.98507071 42.1250231 -14.44169117 42.13031554 -17.8984375 42.13671875 C-20.07812529 42.13605797 -22.257813 42.13477682 -24.4375 42.1328125 C-25.47914307 42.13483673 -26.52078613 42.13686096 -27.59399414 42.13894653 C-28.55168701 42.13579437 -29.50937988 42.13264221 -30.49609375 42.12939453 C-31.34357178 42.12859894 -32.1910498 42.12780334 -33.06420898 42.12698364 C-35 42 -35 42 -36 41 C-36.09971786 39.08541718 -36.13080589 37.16717683 -36.1328125 35.25 C-36.13410156 34.0846875 -36.13539062 32.919375 -36.13671875 31.71875 C-36.13285156 30.4915625 -36.12898438 29.264375 -36.125 28 C-36.12886719 26.7728125 -36.13273437 25.545625 -36.13671875 24.28125 C-36.13542969 23.1159375 -36.13414063 21.950625 -36.1328125 20.75 C-36.13168457 19.67234375 -36.13055664 18.5946875 -36.12939453 17.484375 C-36 15 -36 15 -35 14 C-33.29227642 13.91286169 -31.58101351 13.89299993 -29.87109375 13.90234375 C-28.31938477 13.90717773 -28.31938477 13.90717773 -26.73632812 13.91210938 C-25.64771484 13.92048828 -24.55910156 13.92886719 -23.4375 13.9375 C-21.7987793 13.94426758 -21.7987793 13.94426758 -20.12695312 13.95117188 C-17.41791505 13.96300174 -14.70898401 13.97948457 -12 14 C-11.896875 13.21625 -11.79375 12.4325 -11.6875 11.625 C-11 9 -11 9 -8 7 C-5.67891331 6.29187186 -3.34622853 5.61975848 -1 5 C-0.67 3.35 -0.34 1.7 0 0 Z M-34 18 C-34.30984531 20.09813381 -34.30984531 20.09813381 -34.265625 22.5 C-34.26820312 23.386875 -34.27078125 24.27375 -34.2734375 25.1875 C-34.26570313 26.115625 -34.25796875 27.04375 -34.25 28 C-34.25773437 28.928125 -34.26546875 29.85625 -34.2734375 30.8125 C-34.27085938 31.699375 -34.26828125 32.58625 -34.265625 33.5 C-34.26336914 34.3146875 -34.26111328 35.129375 -34.25878906 35.96875 C-34.18174293 38.22630451 -34.18174293 38.22630451 -32 40 C-30.11700877 40.30461028 -30.11700877 40.30461028 -27.94921875 40.25878906 C-26.69782104 40.26824554 -26.69782104 40.26824554 -25.42114258 40.27789307 C-24.51904053 40.2738446 -23.61693848 40.26979614 -22.6875 40.265625 C-21.76283936 40.26753845 -20.83817871 40.2694519 -19.88549805 40.27142334 C-17.92854541 40.27278566 -15.97158376 40.26908596 -14.01464844 40.26074219 C-11.0121641 40.25004334 -8.01027813 40.26063591 -5.0078125 40.2734375 C-3.10937367 40.27211591 -1.21093522 40.26955354 0.6875 40.265625 C2.04065308 40.27169769 2.04065308 40.27169769 3.42114258 40.27789307 C4.67254028 40.26843658 4.67254028 40.26843658 5.94921875 40.25878906 C6.68487061 40.25719788 7.42052246 40.25560669 8.1784668 40.25396729 C10.25014214 40.15165031 10.25014214 40.15165031 12 38 C12.30984531 35.90186619 12.30984531 35.90186619 12.265625 33.5 C12.26820312 32.613125 12.27078125 31.72625 12.2734375 30.8125 C12.26183594 29.4203125 12.26183594 29.4203125 12.25 28 C12.25773437 27.071875 12.26546875 26.14375 12.2734375 25.1875 C12.26957031 23.8571875 12.26957031 23.8571875 12.265625 22.5 C12.26336914 21.6853125 12.26111328 20.870625 12.25878906 20.03125 C12.18174293 17.77369549 12.18174293 17.77369549 10 16 C8.11700877 15.69538972 8.11700877 15.69538972 5.94921875 15.74121094 C5.11495361 15.73490662 4.28068848 15.72860229 3.42114258 15.72210693 C2.51904053 15.7261554 1.61693848 15.73020386 0.6875 15.734375 C-0.23716064 15.73246155 -1.16182129 15.7305481 -2.11450195 15.72857666 C-4.07145459 15.72721434 -6.02841624 15.73091404 -7.98535156 15.73925781 C-10.9878359 15.74995666 -13.98972187 15.73936409 -16.9921875 15.7265625 C-18.89062633 15.72788409 -20.78906478 15.73044646 -22.6875 15.734375 C-23.58960205 15.73032654 -24.4917041 15.72627808 -25.42114258 15.72210693 C-26.25540771 15.72841125 -27.08967285 15.73471558 -27.94921875 15.74121094 C-28.68487061 15.74280212 -29.42052246 15.74439331 -30.1784668 15.74603271 C-32.25014214 15.84834969 -32.25014214 15.84834969 -34 18 Z " fill="#000000" transform="translate(36,2)"/>
<path d="M0 0 C5.28 0 10.56 0 16 0 C16 1.32 16 2.64 16 4 C10.72 4 5.44 4 0 4 C0 2.68 0 1.36 0 0 Z " fill="#000000" transform="translate(17,34)"/>
<path d="M0 0 C2.31 0 4.62 0 7 0 C7 1.32 7 2.64 7 4 C4.69 4 2.38 4 0 4 C0 2.68 0 1.36 0 0 Z " fill="#000000" transform="translate(38,28)"/>
<path d="M0 0 C2.31 0 4.62 0 7 0 C7 1.32 7 2.64 7 4 C4.69 4 2.38 4 0 4 C0 2.68 0 1.36 0 0 Z " fill="#000000" transform="translate(5,28)"/>
<path d="M0 0 C1.32 0 2.64 0 4 0 C4 1.32 4 2.64 4 4 C2.68 4 1.36 4 0 4 C0 2.68 0 1.36 0 0 Z " fill="#000000" transform="translate(41,34)"/>
<path d="M0 0 C1.32 0 2.64 0 4 0 C4 1.32 4 2.64 4 4 C2.68 4 1.36 4 0 4 C0 2.68 0 1.36 0 0 Z " fill="#000000" transform="translate(35,34)"/>
<path d="M0 0 C1.32 0 2.64 0 4 0 C4 1.32 4 2.64 4 4 C2.68 4 1.36 4 0 4 C0 2.68 0 1.36 0 0 Z " fill="#000000" transform="translate(11,34)"/>
<path d="M0 0 C1.32 0 2.64 0 4 0 C4 1.32 4 2.64 4 4 C2.68 4 1.36 4 0 4 C0 2.68 0 1.36 0 0 Z " fill="#000000" transform="translate(5,34)"/>
<path d="M0 0 C1.32 0 2.64 0 4 0 C4 1.32 4 2.64 4 4 C2.68 4 1.36 4 0 4 C0 2.68 0 1.36 0 0 Z " fill="#000000" transform="translate(32,28)"/>
<path d="M0 0 C1.32 0 2.64 0 4 0 C4 1.32 4 2.64 4 4 C2.68 4 1.36 4 0 4 C0 2.68 0 1.36 0 0 Z " fill="#000000" transform="translate(26,28)"/>
<path d="M0 0 C1.32 0 2.64 0 4 0 C4 1.32 4 2.64 4 4 C2.68 4 1.36 4 0 4 C0 2.68 0 1.36 0 0 Z " fill="#000000" transform="translate(20,28)"/>
<path d="M0 0 C1.32 0 2.64 0 4 0 C4 1.32 4 2.64 4 4 C2.68 4 1.36 4 0 4 C0 2.68 0 1.36 0 0 Z " fill="#000000" transform="translate(14,28)"/>
<path d="M0 0 C1.32 0 2.64 0 4 0 C4 1.32 4 2.64 4 4 C2.68 4 1.36 4 0 4 C0 2.68 0 1.36 0 0 Z " fill="#000000" transform="translate(41,22)"/>
<path d="M0 0 C1.32 0 2.64 0 4 0 C4 1.32 4 2.64 4 4 C2.68 4 1.36 4 0 4 C0 2.68 0 1.36 0 0 Z " fill="#000000" transform="translate(35,22)"/>
<path d="M0 0 C1.32 0 2.64 0 4 0 C4 1.32 4 2.64 4 4 C2.68 4 1.36 4 0 4 C0 2.68 0 1.36 0 0 Z " fill="#000000" transform="translate(29,22)"/>
<path d="M0 0 C1.32 0 2.64 0 4 0 C4 1.32 4 2.64 4 4 C2.68 4 1.36 4 0 4 C0 2.68 0 1.36 0 0 Z " fill="#000000" transform="translate(23,22)"/>
<path d="M0 0 C1.32 0 2.64 0 4 0 C4 1.32 4 2.64 4 4 C2.68 4 1.36 4 0 4 C0 2.68 0 1.36 0 0 Z " fill="#000000" transform="translate(17,22)"/>
<path d="M0 0 C1.32 0 2.64 0 4 0 C4 1.32 4 2.64 4 4 C2.68 4 1.36 4 0 4 C0 2.68 0 1.36 0 0 Z " fill="#000000" transform="translate(11,22)"/>
<path d="M0 0 C1.32 0 2.64 0 4 0 C4 1.32 4 2.64 4 4 C2.68 4 1.36 4 0 4 C0 2.68 0 1.36 0 0 Z " fill="#000000" transform="translate(5,22)"/>
</svg>
