<?xml version="1.0" standalone="no"?>
<!DOCTYPE svg PUBLIC "-//W3C//DTD SVG 20010904//EN"
 "http://www.w3.org/TR/2001/REC-SVG-20010904/DTD/svg10.dtd">
<svg version="1.0" xmlns="http://www.w3.org/2000/svg"
 width="512.000000pt" height="512.000000pt" viewBox="0 0 512.000000 512.000000"
 preserveAspectRatio="xMidYMid meet">

<g transform="translate(0.000000,512.000000) scale(0.100000,-0.100000)"
fill="#000000" stroke="none">
<path d="M2620 5103 c-97 -68 -180 -255 -180 -408 0 -86 27 -182 95 -341 90
-210 107 -237 199 -330 82 -81 149 -125 241 -159 28 -10 52 -20 54 -22 2 -1
-12 -20 -32 -42 -20 -22 -49 -64 -64 -93 -25 -48 -28 -63 -28 -153 l0 -100
134 -310 c73 -170 144 -325 156 -345 51 -81 160 -147 260 -157 l55 -6 -32 -35
c-63 -73 -95 -187 -78 -282 6 -31 61 -175 124 -320 62 -146 112 -267 110 -269
-1 -2 -15 6 -31 17 -79 56 -193 75 -285 48 -31 -9 -150 -70 -264 -136 -114
-66 -209 -118 -211 -117 -1 2 24 102 56 223 32 120 62 238 66 261 14 89 -32
217 -104 286 -70 68 -305 237 -350 252 -146 48 -196 35 -467 -121 -119 -68
-218 -123 -220 -121 -2 1 24 102 58 222 76 275 80 345 30 446 -37 76 -67 106
-232 230 -134 101 -195 133 -277 144 -101 13 -141 -5 -637 -291 l-460 -266
-23 28 c-13 16 -35 53 -50 83 -27 55 -33 116 -23 255 3 45 0 52 -29 78 -67 60
-148 22 -170 -80 -33 -156 15 -342 121 -466 54 -63 337 -275 420 -314 96 -46
178 -63 292 -63 56 0 116 5 135 11 19 5 37 8 39 5 3 -2 -1 -24 -7 -49 -26
-105 -6 -212 56 -300 37 -52 557 -448 633 -481 66 -29 229 -29 285 2 l40 21 0
-102 c0 -91 3 -106 28 -156 16 -30 40 -68 55 -84 15 -16 151 -122 303 -236
281 -211 317 -232 420 -246 52 -7 156 16 208 47 18 11 35 18 37 16 2 -2 9 -39
15 -82 20 -144 79 -269 174 -369 72 -75 272 -221 358 -261 200 -92 423 -82
622 30 51 28 70 45 81 72 28 65 -17 136 -86 136 -16 0 -66 -19 -112 -42 -108
-55 -202 -71 -306 -52 -117 21 -118 -22 10 458 l113 421 17 -83 c21 -110 125
-354 189 -444 120 -172 336 -281 554 -281 75 0 116 17 133 55 15 33 15 57 0
90 -17 37 -58 55 -127 55 -148 0 -295 65 -372 163 l-22 29 375 376 c429 431
423 423 423 572 0 83 -2 89 -68 245 -38 88 -79 179 -92 201 -32 54 -86 101
-155 133 -54 26 -58 26 -324 29 l-269 3 176 178 c193 195 229 248 241 359 9
74 -6 128 -90 327 -61 142 -74 166 -124 216 -38 39 -73 63 -115 79 -56 23 -75
24 -319 28 l-259 4 176 176 c218 221 232 244 232 387 l0 100 -72 165 c-80 184
-116 240 -187 287 -74 51 -131 63 -284 63 l-134 0 -34 -34 c-36 -36 -43 -70
-23 -109 23 -45 50 -57 129 -57 l75 0 -185 -186 -185 -186 -72 5 c-138 8 -294
110 -356 233 -62 124 -140 312 -150 365 -17 96 23 254 78 299 22 18 45 64 45
90 0 75 -90 125 -150 83z m1248 -932 c72 -174 76 -206 33 -272 -29 -45 -667
-687 -674 -679 -2 3 -32 71 -65 151 -63 148 -72 192 -51 246 9 24 674 703 689
703 3 0 34 -67 68 -149z m32 -1146 l-185 -185 -124 0 c-163 0 -198 15 -241
101 -17 32 -30 64 -30 71 0 7 42 54 92 105 l93 93 290 0 290 0 -185 -185z
m-2318 19 c71 -53 135 -109 142 -123 31 -62 30 -71 -94 -534 -67 -249 -123
-460 -126 -469 -4 -13 -32 3 -139 83 -137 103 -165 136 -165 196 0 29 240 943
248 943 3 0 63 -43 134 -96z m2779 -55 c65 -154 74 -202 46 -254 -9 -16 -166
-180 -350 -363 l-333 -333 -63 147 c-65 152 -76 207 -51 256 12 22 681 700
687 695 1 -2 30 -68 64 -148z m-3207 -147 l-67 -251 -46 -20 c-81 -34 -138
-44 -231 -39 -72 4 -101 11 -155 37 -87 40 -170 100 -157 113 15 15 716 418
720 414 2 -2 -27 -117 -64 -254z m1448 -578 c73 -55 136 -110 144 -127 9 -16
16 -48 16 -71 -1 -32 -140 -574 -228 -883 l-14 -52 -129 95 c-71 52 -137 106
-146 121 -36 55 -32 78 94 549 67 248 121 454 121 458 0 14 18 2 142 -90z
m-362 51 c0 -15 -132 -491 -138 -497 -4 -4 -54 -34 -112 -67 -132 -77 -168
-80 -254 -24 -31 21 -56 44 -56 52 0 28 63 246 75 259 13 14 464 280 478 281
4 1 7 -1 7 -4z m2150 -470 l-185 -185 -120 0 c-105 0 -126 3 -165 23 -38 18
-50 33 -77 88 l-32 67 97 96 97 96 285 0 285 0 -185 -185z m466 -45 c65 -155
73 -193 50 -241 -9 -19 -166 -184 -349 -367 l-334 -334 -26 64 c-49 117 -59
209 -32 311 31 120 52 147 343 439 152 153 279 275 283 270 4 -4 33 -68 65
-142z m-1224 -324 c68 -52 129 -106 136 -121 7 -14 12 -44 12 -67 0 -30 -206
-834 -235 -916 -11 -31 -166 111 -204 187 -36 72 -54 144 -54 220 1 64 15 131
97 434 53 197 96 361 96 364 0 12 36 -11 152 -101z m-376 47 c-3 -10 -33 -121
-66 -248 -34 -126 -62 -231 -63 -231 -1 -1 -51 -29 -111 -64 -94 -53 -116 -62
-159 -62 -42 0 -58 6 -106 40 -31 22 -54 46 -52 54 2 7 18 66 35 131 l32 118
240 139 c131 76 243 139 247 139 5 1 6 -7 3 -16z m756 -123 c-15 -33 -29 -55
-31 -48 -2 7 -12 34 -21 61 l-18 47 48 0 48 0 -26 -60z"/>
<path d="M2964 4566 c-66 -66 -24 -165 69 -166 100 0 134 140 46 186 -45 23
-78 17 -115 -20z"/>
</g>
</svg>
